<svg width="69" height="69" viewBox="0 0 69 69" fill="none" xmlns="http://www.w3.org/2000/svg">
<g clip-path="url(#clip0)">
<path d="M10.2422 28.4355H2.02148C0.904142 28.4355 0 29.3397 0 30.457C0 31.5744 0.904142 32.4785 2.02148 32.4785H10.2422C11.3595 32.4785 12.2637 31.5744 12.2637 30.457C12.2637 29.3397 11.3595 28.4355 10.2422 28.4355Z" fill="black"/>
<path d="M62.8008 28.4355H54.7148C53.5975 28.4355 52.6934 29.3397 52.6934 30.457C52.6934 31.5744 53.5975 32.4785 54.7148 32.4785H62.8008C63.9181 32.4785 64.8223 31.5744 64.8223 30.457C64.8223 29.3397 63.9181 28.4355 62.8008 28.4355Z" fill="black"/>
<path d="M55.3486 7.58707C54.559 6.79748 53.2797 6.79748 52.4901 7.58707L46.7731 13.3041C45.9835 14.0937 45.9835 15.373 46.7731 16.1626C47.5627 16.9522 48.842 16.9522 49.6316 16.1626L55.3486 10.4456C56.1382 9.65599 56.1382 8.37666 55.3486 7.58707Z" fill="black"/>
<path d="M18.1841 13.3041L12.4671 7.58707C11.6775 6.79748 10.3981 6.79748 9.60855 7.58707C8.81896 8.37666 8.81896 9.65599 9.60855 10.4456L15.3256 16.1626C16.1152 16.9522 17.3945 16.9522 18.1841 16.1626C18.9737 15.373 18.9737 14.0937 18.1841 13.3041Z" fill="black"/>
<path d="M32.4785 0C31.3612 0 30.457 0.904142 30.457 2.02148V10.2422C30.457 11.3595 31.3612 12.2637 32.4785 12.2637C33.5959 12.2637 34.5 11.3595 34.5 10.2422V2.02148C34.5 0.904142 33.5959 0 32.4785 0Z" fill="black"/>
<path d="M32.1489 41.4461C32.1508 41.4488 32.1531 41.4511 32.155 41.4538C32.0818 41.3438 32.0832 41.3462 32.1489 41.4461Z" fill="black"/>
<path d="M32.149 41.4461C31.3375 40.282 29.5658 40.2843 28.7591 41.4538L19.905 54.7956L15.9024 49.459C15.0938 48.3673 13.4765 48.3673 12.6679 49.459L0.40425 65.7656C-0.0404761 66.3719 -0.121336 67.1805 0.202102 67.8678C0.565969 68.5553 1.25327 69 2.02144 69H50.3888C50.1349 68.6182 33.1774 43.0064 32.149 41.4461Z" fill="black"/>
<path d="M32.4785 16.3066C23.5615 16.3066 16.3066 23.5615 16.3066 32.4785C16.3066 37.2591 18.4041 41.6008 21.8203 44.5985L25.3915 39.2181C26.568 37.5126 28.4474 36.5313 30.457 36.5313C30.8718 36.5313 31.2753 36.5982 31.6736 36.6792L37.5224 27.8927C38.6575 26.2207 40.5428 25.2415 42.5859 25.2415C44.6291 25.2415 46.5144 26.2207 47.6278 27.8631L48.1349 28.6244C46.3944 21.5715 40.0608 16.3066 32.4785 16.3066Z" fill="black"/>
<path d="M68.633 65.8462L44.2838 30.1335C43.5156 29.0016 41.656 29.0016 40.8878 30.1335L35.1396 38.7699C35.9743 39.7795 40.9844 47.6325 55.2417 68.9999H66.9752C67.7029 68.9999 68.3901 68.5954 68.7541 67.9487C69.1181 67.2615 69.0777 66.4932 68.633 65.8462Z" fill="black"/>
</g>
<defs>
<clipPath id="clip0">
<rect width="69" height="69" fill="white"/>
</clipPath>
</defs>
</svg>
