<svg width="53" height="49" viewBox="0 0 53 49" fill="none" xmlns="http://www.w3.org/2000/svg">
<path d="M26.5 48.0514C25.7454 48.0514 25.018 47.7781 24.4511 47.2815C22.31 45.4093 20.2458 43.65 18.4245 42.0981L18.4152 42.09C13.0757 37.5397 8.46481 33.6102 5.25664 29.7393C1.6704 25.4118 0 21.3088 0 16.8265C0 12.4716 1.49329 8.45387 4.20451 5.51297C6.94807 2.5373 10.7126 0.898438 14.8059 0.898438C17.8653 0.898438 20.6671 1.86566 23.1333 3.77302C24.3779 4.73579 25.506 5.91409 26.5 7.28851C27.4943 5.91409 28.622 4.73579 29.867 3.77302C32.3332 1.86566 35.135 0.898438 38.1944 0.898438C42.2873 0.898438 46.0522 2.5373 48.7958 5.51297C51.507 8.45387 52.9999 12.4716 52.9999 16.8265C52.9999 21.3088 51.3299 25.4118 47.7437 29.7389C44.5355 33.6102 39.925 37.5393 34.5863 42.0892C32.7618 43.6435 30.6943 45.4057 28.5484 47.2823C27.9819 47.7781 27.2541 48.0514 26.5 48.0514ZM14.8059 4.0031C11.5901 4.0031 8.63586 5.28653 6.4867 7.61725C4.30559 9.98315 3.10425 13.2536 3.10425 16.8265C3.10425 20.5963 4.50535 23.9679 7.6468 27.7583C10.6831 31.4222 15.1994 35.2709 20.4285 39.7273L20.4382 39.7354C22.2663 41.2934 24.3387 43.0596 26.4955 44.9455C28.6653 43.056 30.7408 41.2869 32.5726 39.7265C37.8013 35.2701 42.3172 31.4222 45.3535 27.7583C48.4946 23.9679 49.8957 20.5963 49.8957 16.8265C49.8957 13.2536 48.6943 9.98315 46.5132 7.61725C44.3644 5.28653 41.4098 4.0031 38.1944 4.0031C35.8386 4.0031 33.6757 4.75197 31.7659 6.22868C30.064 7.54527 28.8784 9.20961 28.1833 10.3742C27.8258 10.973 27.1967 11.3305 26.5 11.3305C25.8032 11.3305 25.1741 10.973 24.8166 10.3742C24.1219 9.20961 22.9363 7.54527 21.234 6.22868C19.3242 4.75197 17.1613 4.0031 14.8059 4.0031Z" fill="black"/>
</svg>
