<svg width="53" height="37" viewBox="0 0 53 37" fill="none" xmlns="http://www.w3.org/2000/svg">
<path d="M50.9147 11.8804C50.9228 12.0263 50.9121 12.1747 50.8754 12.3221L47.6063 25.3987C47.4414 26.0575 46.851 26.5207 46.1722 26.5243L26.5573 26.6234C26.5547 26.6234 26.5523 26.6234 26.5497 26.6234H6.93458C6.25222 26.6234 5.65763 26.1585 5.49278 25.4964L2.22362 12.3702C2.18598 12.2188 2.17508 12.0663 2.18459 11.9167C0.919922 11.5183 0 10.3348 0 8.94018C0 7.21941 1.39979 5.81961 3.12056 5.81961C4.84133 5.81961 6.24112 7.21941 6.24112 8.94018C6.24112 9.90923 5.79711 10.7763 5.10187 11.349L9.19486 15.4729C10.2293 16.5153 11.6648 17.1129 13.1333 17.1129C14.8697 17.1129 16.5253 16.2883 17.5679 14.9067L24.2944 5.99397C23.7293 5.4293 23.3794 4.64906 23.3794 3.78877C23.3794 2.06801 24.7792 0.668213 26.5 0.668213C28.2208 0.668213 29.6206 2.06801 29.6206 3.78877C29.6206 4.6233 29.2893 5.38075 28.7537 5.94127C28.7555 5.94364 28.7577 5.94563 28.7595 5.9482L35.4373 14.8855C36.4795 16.2803 38.141 17.1131 39.8824 17.1131C41.3644 17.1131 42.758 16.5359 43.8059 15.4878L47.9247 11.3691C47.2148 10.7965 46.7589 9.92112 46.7589 8.94018C46.7589 7.21941 48.1587 5.81961 49.8794 5.81961C51.6002 5.81961 53 7.21941 53 8.94018C53 10.2976 52.1272 11.4521 50.9147 11.8804ZM47.2873 31.2794C47.2873 30.4588 46.622 29.7934 45.8013 29.7934H7.36393C6.54327 29.7934 5.87795 30.4588 5.87795 31.2794V34.8458C5.87795 35.6664 6.54327 36.3318 7.36393 36.3318H45.8013C46.622 36.3318 47.2873 35.6664 47.2873 34.8458V31.2794Z" fill="black"/>
</svg>
