<svg width="34" height="34" viewBox="0 0 34 34" fill="none" xmlns="http://www.w3.org/2000/svg">
<g clip-path="url(#clip0)">
<path d="M33.9666 9.99609C33.8869 8.18954 33.5948 6.94755 33.1763 5.87135C32.7446 4.729 32.0804 3.70624 31.2102 2.85603C30.36 1.99258 29.3305 1.32164 28.2013 0.896659C27.1189 0.478166 25.8834 0.186026 24.0769 0.106374C22.2568 0.0199776 21.679 0 17.0629 0C12.4467 0 11.869 0.0199776 10.0557 0.0996288C8.24911 0.17928 7.00712 0.47168 5.93118 0.889914C4.78856 1.32164 3.76581 1.98583 2.9156 2.85603C2.05215 3.70624 1.38147 4.73574 0.956229 5.86487C0.537737 6.94755 0.245596 8.1828 0.165945 9.98935C0.0795479 11.8094 0.0595703 12.3872 0.0595703 17.0033C0.0595703 21.6195 0.0795479 22.1973 0.159199 24.0105C0.23885 25.8171 0.53125 27.0591 0.949743 28.1353C1.38147 29.2776 2.05215 30.3004 2.9156 31.1506C3.76581 32.0141 4.79531 32.685 5.92444 33.11C7.00712 33.5285 8.24236 33.8206 10.0492 33.9003C11.8622 33.9802 12.4403 33.9999 17.0564 33.9999C21.6725 33.9999 22.2503 33.9802 24.0636 33.9003C25.8702 33.8206 27.1122 33.5285 28.1881 33.11C30.4731 32.2266 32.2796 30.42 33.163 28.1353C33.5813 27.0526 33.8737 25.8171 33.9533 24.0105C34.033 22.1973 34.053 21.6195 34.053 17.0033C34.053 12.3872 34.0462 11.8094 33.9666 9.99609ZM30.9048 23.8777C30.8316 25.5382 30.5527 26.4348 30.3203 27.0326C29.7489 28.5138 28.5734 29.6894 27.0922 30.2607C26.4944 30.4932 25.5913 30.7721 23.9373 30.845C22.1439 30.9249 21.6061 30.9446 17.0696 30.9446C12.5331 30.9446 11.9886 30.9249 10.2017 30.845C8.54125 30.7721 7.64459 30.4932 7.04682 30.2607C6.30972 29.9883 5.63878 29.5566 5.0942 28.992C4.52963 28.4407 4.09791 27.7765 3.82549 27.0394C3.59302 26.4416 3.31411 25.5382 3.2412 23.8845C3.16129 22.0911 3.14158 21.553 3.14158 17.0166C3.14158 12.4801 3.16129 11.9355 3.2412 10.1489C3.31411 8.48843 3.59302 7.59177 3.82549 6.994C4.09791 6.25664 4.52963 5.58596 5.10094 5.04111C5.65201 4.47655 6.31621 4.04483 7.05356 3.77266C7.65133 3.5402 8.55474 3.26129 10.2085 3.18812C12.0018 3.10847 12.5399 3.08849 17.0761 3.08849C21.6193 3.08849 22.1572 3.10847 23.944 3.18812C25.6045 3.26129 26.5012 3.5402 27.0989 3.77266C27.836 4.04483 28.507 4.47655 29.0515 5.04111C29.6161 5.59245 30.0478 6.25664 30.3203 6.994C30.5527 7.59177 30.8316 8.49491 30.9048 10.1489C30.9844 11.9422 31.0044 12.4801 31.0044 17.0166C31.0044 21.553 30.9844 22.0844 30.9048 23.8777Z" fill="black"/>
<path d="M17.063 8.26904C12.2411 8.26904 8.32886 12.181 8.32886 17.0032C8.32886 21.8253 12.2411 25.7373 17.063 25.7373C21.8851 25.7373 25.7971 21.8253 25.7971 17.0032C25.7971 12.181 21.8851 8.26904 17.063 8.26904ZM17.063 22.6688C13.9348 22.6688 11.3974 20.1316 11.3974 17.0032C11.3974 13.8747 13.9348 11.3376 17.063 11.3376C20.1914 11.3376 22.7286 13.8747 22.7286 17.0032C22.7286 20.1316 20.1914 22.6688 17.063 22.6688Z" fill="black"/>
<path d="M28.1818 7.92379C28.1818 9.0498 27.2688 9.96281 26.1425 9.96281C25.0165 9.96281 24.1035 9.0498 24.1035 7.92379C24.1035 6.79751 25.0165 5.88477 26.1425 5.88477C27.2688 5.88477 28.1818 6.79751 28.1818 7.92379Z" fill="black"/>
</g>
<defs>
<clipPath id="clip0">
<rect width="34" height="34" fill="white"/>
</clipPath>
</defs>
</svg>
