<svg width="69" height="69" viewBox="0 0 69 69" fill="none" xmlns="http://www.w3.org/2000/svg">
<g clip-path="url(#clip0)">
<path d="M10.2422 28.4355H2.02148C0.904142 28.4355 0 29.3397 0 30.457C0 31.5744 0.904142 32.4785 2.02148 32.4785H10.2422C11.3595 32.4785 12.2637 31.5744 12.2637 30.457C12.2637 29.3397 11.3595 28.4355 10.2422 28.4355Z" fill="white"/>
<path d="M62.8008 28.4355H54.7148C53.5975 28.4355 52.6934 29.3397 52.6934 30.457C52.6934 31.5744 53.5975 32.4785 54.7148 32.4785H62.8008C63.9181 32.4785 64.8223 31.5744 64.8223 30.457C64.8223 29.3397 63.9181 28.4355 62.8008 28.4355Z" fill="white"/>
<path d="M55.3486 7.58682C54.559 6.79723 53.2797 6.79723 52.4901 7.58682L46.7731 13.3038C45.9835 14.0934 45.9835 15.3728 46.7731 16.1624C47.5627 16.952 48.842 16.952 49.6316 16.1624L55.3486 10.4453C56.1382 9.65574 56.1382 8.37641 55.3486 7.58682Z" fill="white"/>
<path d="M18.1841 13.3038L12.4671 7.58682C11.6775 6.79723 10.3981 6.79723 9.60855 7.58682C8.81896 8.37641 8.81896 9.65574 9.60855 10.4453L15.3256 16.1624C16.1152 16.952 17.3945 16.952 18.1841 16.1624C18.9737 15.3728 18.9737 14.0934 18.1841 13.3038Z" fill="white"/>
<path d="M32.4785 0C31.3612 0 30.457 0.904142 30.457 2.02148V10.2422C30.457 11.3595 31.3612 12.2637 32.4785 12.2637C33.5959 12.2637 34.5 11.3595 34.5 10.2422V2.02148C34.5 0.904142 33.5959 0 32.4785 0Z" fill="white"/>
<path d="M32.1489 41.446C32.1508 41.4486 32.1531 41.4509 32.155 41.4536C32.0818 41.3437 32.0832 41.3461 32.1489 41.446Z" fill="white"/>
<path d="M32.149 41.446C31.3375 40.2819 29.5658 40.2842 28.7591 41.4537L19.905 54.7955L15.9024 49.4589C15.0938 48.3671 13.4765 48.3671 12.6679 49.4589L0.40425 65.7655C-0.0404761 66.3718 -0.121336 67.1804 0.202102 67.8677C0.565969 68.5552 1.25327 68.9999 2.02144 68.9999H50.3888C50.1349 68.6181 33.1774 43.0063 32.149 41.446Z" fill="white"/>
<path d="M32.4785 16.3066C23.5615 16.3066 16.3066 23.5615 16.3066 32.4785C16.3066 37.2591 18.4041 41.6008 21.8203 44.5985L25.3915 39.2181C26.568 37.5126 28.4474 36.5313 30.457 36.5313C30.8718 36.5313 31.2753 36.5982 31.6736 36.6792L37.5224 27.8927C38.6575 26.2207 40.5428 25.2415 42.5859 25.2415C44.6291 25.2415 46.5144 26.2207 47.6278 27.8631L48.1349 28.6244C46.3944 21.5715 40.0608 16.3066 32.4785 16.3066Z" fill="white"/>
<path d="M68.633 65.8464L44.2838 30.1336C43.5156 29.0017 41.656 29.0017 40.8878 30.1336L35.1396 38.77C35.9743 39.7796 40.9844 47.6326 55.2417 69H66.9752C67.7029 69 68.3901 68.5956 68.7541 67.9488C69.1181 67.2617 69.0777 66.4934 68.633 65.8464Z" fill="white"/>
</g>
<defs>
<clipPath id="clip0">
<rect width="69" height="69" fill="white"/>
</clipPath>
</defs>
</svg>
