<svg width="40" height="40" viewBox="0 0 40 40" fill="none" xmlns="http://www.w3.org/2000/svg">
<path d="M37.9578 10.627C37.5256 9.02046 36.259 7.75406 34.6527 7.32147C31.7182 6.51855 19.98 6.51855 19.98 6.51855C19.98 6.51855 8.24226 6.51855 5.30777 7.29103C3.73238 7.72316 2.43484 9.02069 2.00272 10.627C1.23047 13.5612 1.23047 19.6465 1.23047 19.6465C1.23047 19.6465 1.23047 25.7625 2.00272 28.6661C2.4353 30.2724 3.70148 31.5388 5.308 31.9714C8.27316 32.7745 19.9805 32.7745 19.9805 32.7745C19.9805 32.7745 31.7182 32.7745 34.6527 32.002C36.2592 31.5697 37.5256 30.3033 37.9582 28.697C38.7302 25.7625 38.7302 19.6774 38.7302 19.6774C38.7302 19.6774 38.7611 13.5612 37.9578 10.627ZM16.2428 25.2683V14.0247L26.0037 19.6465L16.2428 25.2683Z" fill="black"/>
</svg>
